<svg xmlns="http://www.w3.org/2000/svg" viewBox="0 0 512 512" width="512" height="512">
  <!-- Gray background with rounded corners -->
  <rect width="512" height="512" rx="64" ry="64" fill="#4B5563"/>
  
  <!-- V letter with circuit pattern -->
  <g transform="translate(60, 100)">
    <!-- V shape -->
    <path d="M40 0 L120 280 L200 0 L160 0 L120 200 L80 0 Z" 
          fill="url(#vGradient)" 
          stroke="none"/>
    <!-- Circuit lines on V -->
    <circle cx="60" cy="40" r="4" fill="#60A5FA"/>
    <circle cx="70" cy="80" r="4" fill="#60A5FA"/>
    <circle cx="80" cy="120" r="4" fill="#60A5FA"/>
    <circle cx="90" cy="160" r="4" fill="#34D399"/>
    <circle cx="100" cy="200" r="4" fill="#34D399"/>
    <line x1="60" y1="40" x2="60" y2="80" stroke="#60A5FA" stroke-width="2"/>
    <line x1="60" y1="80" x2="70" y2="80" stroke="#60A5FA" stroke-width="2"/>
    <line x1="70" y1="80" x2="70" y2="120" stroke="#60A5FA" stroke-width="2"/>
    <line x1="70" y1="120" x2="80" y2="120" stroke="#60A5FA" stroke-width="2"/>
    <line x1="80" y1="120" x2="80" y2="160" stroke="#34D399" stroke-width="2"/>
    <line x1="80" y1="160" x2="90" y2="160" stroke="#34D399" stroke-width="2"/>
    <line x1="90" y1="160" x2="90" y2="200" stroke="#34D399" stroke-width="2"/>
    <line x1="90" y1="200" x2="100" y2="200" stroke="#34D399" stroke-width="2"/>
  </g>
  
  <!-- D letter -->
  <g transform="translate(220, 100)">
    <path d="M0 0 L0 280 L100 280 C180 280 180 0 100 0 Z M40 40 L90 40 C130 40 130 240 90 240 L40 240 Z" 
          fill="url(#dGradient)"
          stroke="none"/>
  </g>
  
  <!-- WiFi signal waves -->
  <g transform="translate(340, 80)">
    <path d="M60 60 Q80 40 100 60" stroke="#34D399" stroke-width="8" fill="none" stroke-linecap="round"/>
    <path d="M45 45 Q80 15 115 45" stroke="#34D399" stroke-width="8" fill="none" stroke-linecap="round"/>
    <path d="M30 30 Q80 -10 130 30" stroke="#2DD4BF" stroke-width="8" fill="none" stroke-linecap="round"/>
  </g>
  
  <!-- Gradients -->
  <defs>
    <linearGradient id="vGradient" x1="0%" y1="0%" x2="0%" y2="100%">
      <stop offset="0%" style="stop-color:#60A5FA"/>
      <stop offset="100%" style="stop-color:#34D399"/>
    </linearGradient>
    <linearGradient id="dGradient" x1="0%" y1="0%" x2="100%" y2="100%">
      <stop offset="0%" style="stop-color:#9CA3AF"/>
      <stop offset="50%" style="stop-color:#D1D5DB"/>
      <stop offset="100%" style="stop-color:#9CA3AF"/>
    </linearGradient>
  </defs>
</svg>



