<svg xmlns="http://www.w3.org/2000/svg" viewBox="0 0 512 512" width="512" height="512">
  <!-- White background with Apple-style rounded corners -->
  <rect width="512" height="512" rx="108" ry="108" fill="#ffffff"/>
  
  <!-- "V" letter - black, bold -->
  <path 
    d="M60 120 L170 392 L280 120 L224 120 L170 296 L116 120 Z" 
    fill="#1a1a1a"
  />
  
  <!-- "D" letter - orange, bold -->
  <path 
    d="M260 120 L260 392 L350 392 C450 392 450 120 350 120 Z M304 168 L340 168 C400 168 400 344 340 344 L304 344 Z" 
    fill="#f97316"
  />
  
  <!-- WiFi/Network signal - dark blue, top right -->
  <g transform="translate(360, 60)">
    <!-- Inner arc -->
    <path d="M40 70 Q60 50 80 70" stroke="#1e3a5f" stroke-width="12" fill="none" stroke-linecap="round"/>
    <!-- Middle arc -->
    <path d="M25 50 Q60 20 95 50" stroke="#1e3a5f" stroke-width="12" fill="none" stroke-linecap="round"/>
    <!-- Outer arc -->
    <path d="M10 30 Q60 -10 110 30" stroke="#1e3a5f" stroke-width="12" fill="none" stroke-linecap="round"/>
  </g>
</svg>
